<svg width="250" height="54" viewBox="0 0 250 54" fill="none" xmlns="http://www.w3.org/2000/svg">
<g clip-path="url(#clip0_90_961)">
<path d="M239.5 0.5H10.5C4.97715 0.5 0.5 4.97715 0.5 10.5V43.5C0.5 49.0228 4.97715 53.5 10.5 53.5H239.5C245.023 53.5 249.5 49.0228 249.5 43.5V10.5C249.5 4.97715 245.023 0.5 239.5 0.5Z" fill="#221D21" stroke="#221D21"/>
<path d="M53.5689 20V13.4545H57.9027V14.5955H54.9528V16.1552H57.6151V17.2962H54.9528V20H53.5689ZM60.2174 13.4545V20H58.8335V13.4545H60.2174ZM66.8308 13.4545V20H65.6355L62.7878 15.8803H62.7399V20H61.356V13.4545H62.5705L65.3958 17.571H65.4533V13.4545H66.8308ZM70.2945 20H67.9742V13.4545H70.3137C70.972 13.4545 71.5388 13.5856 72.0139 13.8477C72.4891 14.1076 72.8545 14.4815 73.1102 14.9695C73.368 15.4574 73.4969 16.0412 73.4969 16.7209C73.4969 17.4027 73.368 17.9886 73.1102 18.4787C72.8545 18.9687 72.4869 19.3448 72.0075 19.6069C71.5303 19.869 70.9593 20 70.2945 20ZM69.358 18.8143H70.2369C70.646 18.8143 70.9901 18.7418 71.2693 18.5969C71.5505 18.4499 71.7615 18.223 71.9021 17.9162C72.0448 17.6072 72.1162 17.2088 72.1162 16.7209C72.1162 16.2372 72.0448 15.842 71.9021 15.5352C71.7615 15.2283 71.5516 15.0025 71.2725 14.8576C70.9933 14.7127 70.6492 14.6403 70.2401 14.6403H69.358V18.8143ZM80.648 13.4545H82.0319V17.7053C82.0319 18.1825 81.9179 18.6001 81.6899 18.9581C81.464 19.3161 81.1476 19.5952 80.7407 19.7955C80.3337 19.9936 79.8596 20.0927 79.3184 20.0927C78.7751 20.0927 78.3 19.9936 77.893 19.7955C77.4861 19.5952 77.1697 19.3161 76.9438 18.9581C76.718 18.6001 76.605 18.1825 76.605 17.7053V13.4545H77.9889V17.587C77.9889 17.8363 78.0432 18.0579 78.1519 18.2518C78.2627 18.4457 78.4182 18.598 78.6185 18.7088C78.8188 18.8196 79.0521 18.875 79.3184 18.875C79.5869 18.875 79.8202 18.8196 80.0184 18.7088C80.2187 18.598 80.3731 18.4457 80.4818 18.2518C80.5926 18.0579 80.648 17.8363 80.648 17.587V13.4545ZM86.7212 15.337C86.6957 15.0792 86.5859 14.8789 86.392 14.7362C86.1982 14.5934 85.935 14.522 85.6026 14.522C85.3768 14.522 85.1861 14.554 85.0305 14.6179C84.875 14.6797 84.7557 14.766 84.6726 14.8768C84.5916 14.9876 84.5511 15.1133 84.5511 15.2539C84.5469 15.3711 84.5714 15.4734 84.6246 15.5607C84.68 15.6481 84.7557 15.7237 84.8516 15.7876C84.9474 15.8494 85.0582 15.9038 85.1839 15.9506C85.3097 15.9954 85.4439 16.0337 85.5866 16.0657L86.1747 16.2063C86.4602 16.2702 86.7223 16.3555 86.9609 16.462C87.1996 16.5685 87.4063 16.6996 87.581 16.8551C87.7557 17.0107 87.891 17.1939 87.9869 17.4048C88.0849 17.6158 88.1349 17.8576 88.1371 18.1303C88.1349 18.5309 88.0327 18.8782 87.8303 19.1722C87.63 19.4641 87.3402 19.6911 86.9609 19.853C86.5838 20.0128 86.1289 20.0927 85.5962 20.0927C85.0678 20.0927 84.6076 20.0117 84.2156 19.8498C83.8256 19.6879 83.521 19.4482 83.3015 19.1307C83.0842 18.8111 82.9702 18.4158 82.9595 17.945H84.2987C84.3136 18.1644 84.3764 18.3477 84.4872 18.4947C84.6001 18.6396 84.7504 18.7493 84.9379 18.8239C85.1275 18.8963 85.3416 18.9325 85.5803 18.9325C85.8146 18.9325 86.0181 18.8984 86.1907 18.8303C86.3654 18.7621 86.5007 18.6673 86.5966 18.5458C86.6925 18.4244 86.7404 18.2848 86.7404 18.1271C86.7404 17.9801 86.6967 17.8565 86.6094 17.7564C86.5241 17.6562 86.3984 17.571 86.2322 17.5007C86.0682 17.4304 85.8668 17.3665 85.6282 17.3089L84.9155 17.13C84.3636 16.9957 83.9279 16.7859 83.6083 16.5004C83.2887 16.2148 83.13 15.8303 83.1321 15.3466C83.13 14.9503 83.2354 14.604 83.4485 14.3079C83.6637 14.0117 83.9588 13.7805 84.3338 13.6143C84.7088 13.4482 85.1349 13.3651 85.6122 13.3651C86.098 13.3651 86.522 13.4482 86.8842 13.6143C87.2486 13.7805 87.532 14.0117 87.7344 14.3079C87.9368 14.604 88.0412 14.9471 88.0476 15.337H86.7212ZM97.1658 16.7273C97.1658 17.4411 97.0305 18.0483 96.7599 18.549C96.4915 19.0497 96.125 19.4322 95.6605 19.6964C95.1982 19.9585 94.6783 20.0895 94.1009 20.0895C93.5192 20.0895 92.9972 19.9574 92.5348 19.6932C92.0724 19.429 91.707 19.0465 91.4386 18.5458C91.1701 18.0451 91.0359 17.4389 91.0359 16.7273C91.0359 16.0135 91.1701 15.4062 91.4386 14.9055C91.707 14.4048 92.0724 14.0234 92.5348 13.7614C92.9972 13.4972 93.5192 13.3651 94.1009 13.3651C94.6783 13.3651 95.1982 13.4972 95.6605 13.7614C96.125 14.0234 96.4915 14.4048 96.7599 14.9055C97.0305 15.4062 97.1658 16.0135 97.1658 16.7273ZM95.7628 16.7273C95.7628 16.2649 95.6935 15.875 95.555 15.5575C95.4187 15.2401 95.2259 14.9993 94.9766 14.8352C94.7273 14.6712 94.4354 14.5891 94.1009 14.5891C93.7663 14.5891 93.4744 14.6712 93.2251 14.8352C92.9759 14.9993 92.782 15.2401 92.6435 15.5575C92.5071 15.875 92.4389 16.2649 92.4389 16.7273C92.4389 17.1896 92.5071 17.5795 92.6435 17.897C92.782 18.2145 92.9759 18.4553 93.2251 18.6193C93.4744 18.7834 93.7663 18.8654 94.1009 18.8654C94.4354 18.8654 94.7273 18.7834 94.9766 18.6193C95.2259 18.4553 95.4187 18.2145 95.555 17.897C95.6935 17.5795 95.7628 17.1896 95.7628 16.7273ZM103.666 13.4545V20H102.47L99.6228 15.8803H99.5748V20H98.191V13.4545H99.4055L102.231 17.571H102.288V13.4545H103.666Z" fill="#EEF2FF"/>
<path d="M53.3274 39V23.7273H59.353C60.5114 23.7273 61.4982 23.9485 62.3136 24.391C63.1289 24.8285 63.7504 25.4375 64.1779 26.218C64.6104 26.9936 64.8267 27.8885 64.8267 28.9027C64.8267 29.9169 64.608 30.8118 64.1705 31.5874C63.733 32.3629 63.0991 32.967 62.2688 33.3995C61.4435 33.832 60.4442 34.0483 59.271 34.0483H55.4304V31.4606H58.7489C59.3704 31.4606 59.8825 31.3537 60.2852 31.1399C60.6928 30.9212 60.9961 30.6204 61.195 30.2376C61.3988 29.8498 61.5007 29.4048 61.5007 28.9027C61.5007 28.3956 61.3988 27.9531 61.195 27.5753C60.9961 27.1925 60.6928 26.8967 60.2852 26.6879C59.8775 26.4741 59.3604 26.3672 58.734 26.3672H56.5565V39H53.3274ZM66.8644 39V27.5455H69.9443V29.544H70.0637C70.2725 28.8331 70.623 28.2962 71.1151 27.9332C71.6073 27.5653 72.1741 27.3814 72.8154 27.3814C72.9745 27.3814 73.146 27.3913 73.33 27.4112C73.5139 27.4311 73.6755 27.4585 73.8147 27.4933V30.3121C73.6656 30.2674 73.4593 30.2276 73.1958 30.1928C72.9323 30.158 72.6911 30.1406 72.4724 30.1406C72.0051 30.1406 71.5874 30.2425 71.2195 30.4464C70.8566 30.6452 70.5683 30.9237 70.3545 31.2816C70.1457 31.6396 70.0413 32.0522 70.0413 32.5195V39H66.8644ZM80.0994 39.2237C78.9411 39.2237 77.9393 38.9776 77.0941 38.4854C76.2539 37.9883 75.6051 37.2972 75.1477 36.4123C74.6903 35.5224 74.4616 34.4908 74.4616 33.3175C74.4616 32.1342 74.6903 31.1001 75.1477 30.2152C75.6051 29.3253 76.2539 28.6342 77.0941 28.142C77.9393 27.6449 78.9411 27.3963 80.0994 27.3963C81.2578 27.3963 82.2571 27.6449 83.0973 28.142C83.9425 28.6342 84.5938 29.3253 85.0511 30.2152C85.5085 31.1001 85.7372 32.1342 85.7372 33.3175C85.7372 34.4908 85.5085 35.5224 85.0511 36.4123C84.5938 37.2972 83.9425 37.9883 83.0973 38.4854C82.2571 38.9776 81.2578 39.2237 80.0994 39.2237ZM80.1143 36.7628C80.6413 36.7628 81.0813 36.6136 81.4343 36.3153C81.7873 36.0121 82.0533 35.5994 82.2322 35.0774C82.4162 34.5554 82.5082 33.9613 82.5082 33.2951C82.5082 32.6289 82.4162 32.0348 82.2322 31.5128C82.0533 30.9908 81.7873 30.5781 81.4343 30.2749C81.0813 29.9716 80.6413 29.82 80.1143 29.82C79.5824 29.82 79.1349 29.9716 78.772 30.2749C78.4141 30.5781 78.1431 30.9908 77.9592 31.5128C77.7802 32.0348 77.6907 32.6289 77.6907 33.2951C77.6907 33.9613 77.7802 34.5554 77.9592 35.0774C78.1431 35.5994 78.4141 36.0121 78.772 36.3153C79.1349 36.6136 79.5824 36.7628 80.1143 36.7628ZM92.0238 39.1864C91.1538 39.1864 90.3658 38.9627 89.6598 38.5153C88.9588 38.0629 88.402 37.3991 87.9893 36.5241C87.5817 35.6442 87.3778 34.5653 87.3778 33.2876C87.3778 31.9751 87.5891 30.8839 88.0117 30.0138C88.4343 29.1388 88.9961 28.4851 89.6971 28.0526C90.4031 27.6151 91.1761 27.3963 92.0163 27.3963C92.6577 27.3963 93.1921 27.5057 93.6197 27.7244C94.0522 27.9382 94.4002 28.2067 94.6637 28.5298C94.9322 28.848 95.136 29.1612 95.2752 29.4695H95.3722V23.7273H98.5415V39H95.4094V37.1655H95.2752C95.1261 37.4837 94.9148 37.7994 94.6413 38.1126C94.3729 38.4208 94.0224 38.6768 93.5898 38.8807C93.1623 39.0845 92.6403 39.1864 92.0238 39.1864ZM93.0305 36.6584C93.5426 36.6584 93.9751 36.5192 94.3281 36.2408C94.6861 35.9574 94.9595 35.5621 95.1484 35.055C95.3423 34.5479 95.4393 33.9538 95.4393 33.2727C95.4393 32.5916 95.3448 32 95.1559 31.4979C94.967 30.9957 94.6935 30.608 94.3356 30.3345C93.9776 30.0611 93.5426 29.9244 93.0305 29.9244C92.5085 29.9244 92.0685 30.0661 91.7106 30.3494C91.3526 30.6328 91.0817 31.0256 90.8977 31.5277C90.7138 32.0298 90.6218 32.6115 90.6218 33.2727C90.6218 33.9389 90.7138 34.5281 90.8977 35.0401C91.0866 35.5472 91.3576 35.945 91.7106 36.2333C92.0685 36.5167 92.5085 36.6584 93.0305 36.6584ZM108.499 34.1229V27.5455H111.676V39H108.626V36.9194H108.506C108.248 37.5906 107.818 38.13 107.216 38.5376C106.62 38.9453 105.891 39.1491 105.031 39.1491C104.266 39.1491 103.592 38.9751 103.01 38.6271C102.429 38.2791 101.974 37.7844 101.646 37.1431C101.323 36.5018 101.158 35.7337 101.153 34.8388V27.5455H104.33V34.272C104.335 34.9482 104.517 35.4826 104.875 35.8754C105.233 36.2681 105.712 36.4645 106.314 36.4645C106.697 36.4645 107.055 36.3775 107.388 36.2035C107.721 36.0245 107.989 35.761 108.193 35.413C108.402 35.065 108.504 34.6349 108.499 34.1229ZM119.392 39.2237C118.219 39.2237 117.21 38.9751 116.365 38.478C115.525 37.9759 114.878 37.2798 114.426 36.3899C113.978 35.5 113.755 34.4759 113.755 33.3175C113.755 32.1442 113.981 31.1151 114.433 30.2301C114.891 29.3402 115.539 28.6467 116.38 28.1495C117.22 27.6474 118.219 27.3963 119.377 27.3963C120.377 27.3963 121.252 27.5778 122.002 27.9407C122.753 28.3036 123.347 28.8132 123.785 29.4695C124.222 30.1257 124.463 30.8963 124.508 31.7812H121.51C121.426 31.2095 121.202 30.7496 120.839 30.4016C120.481 30.0487 120.011 29.8722 119.43 29.8722C118.938 29.8722 118.507 30.0064 118.14 30.2749C117.777 30.5384 117.493 30.9237 117.289 31.4308C117.086 31.9379 116.984 32.5518 116.984 33.2727C116.984 34.0036 117.083 34.625 117.282 35.1371C117.486 35.6491 117.772 36.0394 118.14 36.3079C118.507 36.5763 118.938 36.7106 119.43 36.7106C119.793 36.7106 120.118 36.636 120.407 36.4869C120.7 36.3377 120.941 36.1214 121.13 35.8381C121.324 35.5497 121.451 35.2042 121.51 34.8015H124.508C124.458 35.6765 124.22 36.4471 123.792 37.1133C123.37 37.7745 122.786 38.2915 122.04 38.6644C121.294 39.0373 120.412 39.2237 119.392 39.2237ZM132.635 27.5455V29.9318H125.737V27.5455H132.635ZM127.303 24.8011H130.48V35.4801C130.48 35.7734 130.524 36.0021 130.614 36.1662C130.703 36.3253 130.828 36.4371 130.987 36.5018C131.151 36.5664 131.34 36.5987 131.554 36.5987C131.703 36.5987 131.852 36.5863 132.001 36.5614C132.15 36.5316 132.264 36.5092 132.344 36.4943L132.844 38.8583C132.685 38.908 132.461 38.9652 132.172 39.0298C131.884 39.0994 131.534 39.1417 131.121 39.1566C130.355 39.1864 129.684 39.0845 129.108 38.8509C128.536 38.6172 128.091 38.2543 127.773 37.7621C127.454 37.2699 127.298 36.6484 127.303 35.8977V24.8011ZM139.624 39V23.7273H142.853V30.0288H149.408V23.7273H152.63V39H149.408V32.6911H142.853V39H139.624ZM162.578 34.1229V27.5455H165.755V39H162.705V36.9194H162.586C162.327 37.5906 161.897 38.13 161.295 38.5376C160.699 38.9453 159.971 39.1491 159.11 39.1491C158.345 39.1491 157.671 38.9751 157.089 38.6271C156.508 38.2791 156.053 37.7844 155.725 37.1431C155.402 36.5018 155.238 35.7337 155.233 34.8388V27.5455H158.409V34.272C158.414 34.9482 158.596 35.4826 158.954 35.8754C159.312 36.2681 159.792 36.4645 160.393 36.4645C160.776 36.4645 161.134 36.3775 161.467 36.2035C161.8 36.0245 162.069 35.761 162.272 35.413C162.481 35.065 162.583 34.6349 162.578 34.1229ZM171.473 32.3778V39H168.296V27.5455H171.324V29.5664H171.458C171.712 28.9002 172.137 28.3732 172.733 27.9854C173.33 27.5927 174.053 27.3963 174.903 27.3963C175.699 27.3963 176.392 27.5703 176.984 27.9183C177.576 28.2663 178.035 28.7635 178.364 29.4098C178.692 30.0511 178.856 30.8168 178.856 31.7067V39H175.679V32.2734C175.684 31.5724 175.505 31.0256 175.142 30.6328C174.779 30.2351 174.279 30.0362 173.643 30.0362C173.215 30.0362 172.838 30.1282 172.509 30.3121C172.186 30.4961 171.933 30.7646 171.749 31.1175C171.57 31.4656 171.478 31.8857 171.473 32.3778ZM187.452 27.5455V29.9318H180.554V27.5455H187.452ZM182.12 24.8011H185.297V35.4801C185.297 35.7734 185.342 36.0021 185.431 36.1662C185.521 36.3253 185.645 36.4371 185.804 36.5018C185.968 36.5664 186.157 36.5987 186.371 36.5987C186.52 36.5987 186.669 36.5863 186.818 36.5614C186.968 36.5316 187.082 36.5092 187.161 36.4943L187.661 38.8583C187.502 38.908 187.278 38.9652 186.99 39.0298C186.702 39.0994 186.351 39.1417 185.938 39.1566C185.173 39.1864 184.502 39.0845 183.925 38.8509C183.353 38.6172 182.908 38.2543 182.59 37.7621C182.272 37.2699 182.115 36.6484 182.12 35.8977V24.8011Z" fill="#EEF2FF"/>
<path fill-rule="evenodd" clip-rule="evenodd" d="M227.003 23H216L221.501 13L227.003 23Z" fill="#EEF2FF"/>
<path d="M212.661 40.1293C211.972 40.1293 211.358 40.0108 210.819 39.7738C210.283 39.5337 209.86 39.2044 209.549 38.7859C209.242 38.3642 209.083 37.878 209.074 37.3271H211.087C211.099 37.5579 211.174 37.761 211.313 37.9364C211.454 38.1088 211.642 38.2427 211.876 38.3381C212.11 38.4335 212.373 38.4812 212.666 38.4812C212.97 38.4812 213.24 38.4273 213.473 38.3196C213.707 38.2119 213.89 38.0626 214.023 37.8718C214.155 37.681 214.221 37.4609 214.221 37.2116C214.221 36.9593 214.15 36.7362 214.009 36.5423C213.87 36.3453 213.67 36.1914 213.409 36.0806C213.15 35.9698 212.842 35.9144 212.485 35.9144H211.604V34.4464H212.485C212.787 34.4464 213.053 34.3941 213.284 34.2894C213.518 34.1848 213.7 34.0401 213.829 33.8555C213.958 33.6677 214.023 33.4492 214.023 33.1999C214.023 32.9629 213.966 32.7552 213.852 32.5767C213.741 32.3951 213.584 32.2536 213.381 32.152C213.181 32.0504 212.947 31.9996 212.679 31.9996C212.409 31.9996 212.161 32.0489 211.936 32.1474C211.711 32.2428 211.531 32.3797 211.396 32.5582C211.261 32.7367 211.188 32.946 211.179 33.1861H209.263C209.272 32.6413 209.428 32.1612 209.729 31.7457C210.031 31.3303 210.437 31.0056 210.948 30.7717C211.462 30.5347 212.042 30.4162 212.689 30.4162C213.341 30.4162 213.912 30.5347 214.401 30.7717C214.891 31.0086 215.271 31.3287 215.542 31.7319C215.816 32.132 215.951 32.5813 215.948 33.0799C215.951 33.6093 215.786 34.0509 215.454 34.4048C215.125 34.7588 214.695 34.9834 214.166 35.0788V35.1527C214.861 35.242 215.391 35.4835 215.754 35.8775C216.12 36.2683 216.302 36.7577 216.299 37.3455C216.302 37.8841 216.146 38.3627 215.832 38.7812C215.522 39.1998 215.092 39.5291 214.544 39.7692C213.997 40.0092 213.369 40.1293 212.661 40.1293ZM221.443 40.2077C220.649 40.2047 219.965 40.0092 219.393 39.6214C218.824 39.2337 218.385 38.672 218.077 37.9364C217.773 37.2009 217.622 36.3161 217.625 35.282C217.625 34.2509 217.777 33.3723 218.082 32.646C218.39 31.9196 218.828 31.3672 219.398 30.9886C219.97 30.607 220.652 30.4162 221.443 30.4162C222.234 30.4162 222.914 30.607 223.483 30.9886C224.056 31.3703 224.496 31.9242 224.803 32.6506C225.111 33.3738 225.264 34.2509 225.26 35.282C225.26 36.3191 225.107 37.2055 224.799 37.9411C224.494 38.6766 224.057 39.2383 223.488 39.6261C222.918 40.0138 222.237 40.2077 221.443 40.2077ZM221.443 38.5504C221.984 38.5504 222.417 38.2781 222.74 37.7333C223.063 37.1886 223.223 36.3714 223.22 35.282C223.22 34.5649 223.146 33.9678 222.998 33.4908C222.854 33.0137 222.648 32.6552 222.38 32.4151C222.115 32.1751 221.803 32.055 221.443 32.055C220.904 32.055 220.473 32.3243 220.15 32.8629C219.827 33.4015 219.664 34.2079 219.661 35.282C219.661 36.0083 219.733 36.6146 219.878 37.1009C220.025 37.584 220.233 37.9472 220.501 38.1903C220.769 38.4304 221.083 38.5504 221.443 38.5504ZM230.393 40.2077C229.599 40.2047 228.916 40.0092 228.343 39.6214C227.774 39.2337 227.335 38.672 227.027 37.9364C226.723 37.2009 226.572 36.3161 226.575 35.282C226.575 34.2509 226.727 33.3723 227.032 32.646C227.34 31.9196 227.778 31.3672 228.348 30.9886C228.92 30.607 229.602 30.4162 230.393 30.4162C231.184 30.4162 231.864 30.607 232.433 30.9886C233.006 31.3703 233.446 31.9242 233.754 32.6506C234.061 33.3738 234.214 34.2509 234.211 35.282C234.211 36.3191 234.057 37.2055 233.749 37.9411C233.444 38.6766 233.007 39.2383 232.438 39.6261C231.869 40.0138 231.187 40.2077 230.393 40.2077ZM230.393 38.5504C230.934 38.5504 231.367 38.2781 231.69 37.7333C232.013 37.1886 232.173 36.3714 232.17 35.282C232.17 34.5649 232.096 33.9678 231.949 33.4908C231.804 33.0137 231.598 32.6552 231.33 32.4151C231.065 32.1751 230.753 32.055 230.393 32.055C229.854 32.055 229.423 32.3243 229.1 32.8629C228.777 33.4015 228.614 34.2079 228.611 35.282C228.611 36.0083 228.683 36.6146 228.828 37.1009C228.976 37.584 229.183 37.9472 229.451 38.1903C229.719 38.4304 230.033 38.5504 230.393 38.5504Z" fill="#EEF2FF"/>
<path fill-rule="evenodd" clip-rule="evenodd" d="M42 27.5C42 36.0604 35.0604 43 26.5 43C17.9396 43 11 36.0604 11 27.5C11 18.9396 17.9396 12 26.5 12C35.0604 12 42 18.9396 42 27.5Z" fill="white"/>
<path fill-rule="evenodd" clip-rule="evenodd" d="M28.4328 27.9559L24.0928 27.9561V23.3061H28.4328C29.7018 23.3061 30.7305 24.3469 30.7305 25.6309C30.7305 26.915 29.7018 27.9559 28.4328 27.9559ZM28.4328 20.2059H21.0293V35.7059H24.0928V31.0561H28.4328C31.3937 31.0561 33.794 28.6271 33.794 25.6309C33.794 22.6348 31.3937 20.2059 28.4328 20.2059Z" fill="#221D21"/>
</g>
<defs>
<clipPath id="clip0_90_961">
<rect width="250" height="54" fill="white"/>
</clipPath>
</defs>
</svg>
