<svg viewBox="0 0 1278 254" fill="none" xmlns="http://www.w3.org/2000/svg">
<path d="M1078.38 52.1593C1157.88 -51.3404 1284.07 18.5083 1276.63 105.895C1262.88 267.659 868.375 260.471 710.875 246.313C503.375 227.659 436.375 206.659 267.555 149.869C18.6711 66.146 -57.218 172.856 43.9492 223.826" stroke="currentColor" stroke-dasharray="12 12"/>
<g clip-path="url(#clip0_90_983)">
<path opacity="0.2" d="M70.6381 237.322L46.4611 238.21C46.2576 238.215 46.0574 238.158 45.887 238.047C45.7167 237.936 45.5844 237.775 45.5078 237.586C45.4312 237.398 45.4139 237.19 45.4583 236.992C45.5027 236.793 45.6067 236.613 45.7563 236.475L54.6639 227.974L56.5927 215.818C56.6212 215.617 56.7105 215.429 56.8487 215.28C56.9868 215.13 57.1673 215.026 57.366 214.982C57.5646 214.938 57.772 214.956 57.9605 215.033C58.1489 215.109 58.3094 215.242 58.4206 215.412L71.4509 235.778C71.5477 235.927 71.603 236.099 71.6111 236.277C71.6192 236.455 71.5798 236.631 71.497 236.788C71.4142 236.946 71.291 237.078 71.14 237.172C70.989 237.266 70.8158 237.318 70.6381 237.322Z" fill="currentColor"/>
<path d="M72.2879 235.243L59.2599 214.873C59.0388 214.532 58.7191 214.266 58.3432 214.111C57.9674 213.956 57.5533 213.92 57.1561 214.006C56.7589 214.093 56.3975 214.298 56.12 214.595C55.8425 214.892 55.6621 215.267 55.6028 215.669L53.7287 227.483L45.073 235.741C44.8385 235.958 44.6596 236.229 44.5514 236.53C44.4431 236.831 44.4087 237.154 44.4508 237.471C44.493 237.788 44.6106 238.09 44.7938 238.352C44.977 238.614 45.2204 238.829 45.5036 238.978C45.8116 239.138 46.156 239.217 46.5033 239.206L70.6685 238.325C71.0232 238.315 71.3689 238.211 71.6702 238.023C71.9715 237.836 72.2175 237.572 72.3829 237.258C72.5483 236.944 72.6272 236.591 72.6115 236.237C72.5958 235.882 72.4861 235.538 72.2936 235.24L72.2879 235.243ZM46.4327 237.207C46.4355 237.202 46.4378 237.198 46.4397 237.193L54.8349 229.193L61.2838 232.576C61.5187 232.699 61.7929 232.724 62.0461 232.645C62.2992 232.566 62.5107 232.39 62.6339 232.155C62.7571 231.92 62.782 231.646 62.703 231.392C62.6241 231.139 62.4478 230.928 62.2129 230.805L55.764 227.421L57.5795 215.975C57.5817 215.968 57.5826 215.961 57.5821 215.954L70.6137 236.317L46.4327 237.207Z" fill="currentColor"/>
</g>
<defs>
<clipPath id="clip0_90_983">
<rect width="32" height="32" fill="white" transform="translate(53.2415 209.159) rotate(27.6817)"/>
</clipPath>
</defs>
</svg>
